<svg width="40" height="40" viewBox="0 0 40 40" fill="none" xmlns="http://www.w3.org/2000/svg">
<rect width="40" height="40" rx="10" fill="#F4F3FF"/>
<path d="M16.5524 31C16.1629 31 15.8274 30.8512 15.546 30.5535C15.2645 30.2558 15.1238 29.901 15.1238 29.489V25.9271H16.2476V27.5046H26.8762V12.4954H16.2476V14.0729H15.1238V10.511C15.1238 10.099 15.2645 9.74418 15.546 9.4465C15.8274 9.14883 16.1629 9 16.5524 9H26.5714C26.9609 9 27.2964 9.14883 27.5779 9.4465C27.8593 9.74418 28 10.099 28 10.511V29.489C28 29.901 27.8593 30.2558 27.5779 30.5535C27.2964 30.8512 26.9609 31 26.5714 31H16.5524V31ZM16.2476 28.6932V29.489C16.2476 29.5696 16.2794 29.6435 16.3429 29.7106C16.4064 29.7778 16.4762 29.8114 16.5524 29.8114H26.5714C26.6476 29.8114 26.7175 29.7778 26.781 29.7106C26.8445 29.6435 26.8762 29.5696 26.8762 29.489V28.6932H16.2476ZM12.8076 24.6256L12 23.7714L18.1715 17.2601H13.8857V16.0714H20.1276V22.6734H19.0038V18.0981L12.8076 24.6256ZM16.2476 11.3068H26.8762V10.511C26.8762 10.4304 26.8445 10.3565 26.781 10.2894C26.7175 10.2222 26.6476 10.1886 26.5714 10.1886H16.5524C16.4762 10.1886 16.4064 10.2222 16.3429 10.2894C16.2794 10.3565 16.2476 10.4304 16.2476 10.511V11.3068Z" fill="#1E1E1E"/>
</svg>
