<svg width="40" height="40" viewBox="0 0 40 40" fill="none" xmlns="http://www.w3.org/2000/svg">
<rect width="40" height="40" rx="10" fill="#F4F3FF"/>
<path d="M19.883 11.007L20 11C20.2449 11 20.4813 11.09 20.6644 11.2527C20.8474 11.4155 20.9643 11.6397 20.993 11.883L21 12V19H28C28.2449 19 28.4813 19.09 28.6644 19.2527C28.8474 19.4155 28.9643 19.6397 28.993 19.883L29 20C29 20.2449 28.91 20.4813 28.7473 20.6644C28.5845 20.8474 28.3603 20.9643 28.117 20.993L28 21H21V28C21 28.2449 20.91 28.4813 20.7473 28.6644C20.5845 28.8474 20.3603 28.9643 20.117 28.993L20 29C19.7551 29 19.5187 28.91 19.3356 28.7473C19.1526 28.5845 19.0357 28.3603 19.007 28.117L19 28V21H12C11.7551 21 11.5187 20.91 11.3356 20.7473C11.1526 20.5845 11.0357 20.3603 11.007 20.117L11 20C11 19.7551 11.09 19.5187 11.2527 19.3356C11.4155 19.1526 11.6397 19.0357 11.883 19.007L12 19H19V12C19 11.7551 19.09 11.5187 19.2527 11.3356C19.4155 11.1526 19.6397 11.0357 19.883 11.007Z" fill="#1E1E1E"/>
</svg>
