<svg width="40" height="40" viewBox="0 0 40 40" fill="none" xmlns="http://www.w3.org/2000/svg">
<rect width="40" height="40" rx="10" fill="#F4F3FF"/>
<path d="M5.272 25H3.536V15.704H5.272V25ZM8.58245 19.232C8.85312 18.9427 9.14712 18.714 9.46445 18.546C9.79112 18.3687 10.1831 18.28 10.6405 18.28C11.0045 18.28 11.3265 18.3407 11.6065 18.462C11.8865 18.5833 12.1198 18.756 12.3065 18.98C12.4931 19.204 12.6331 19.47 12.7265 19.778C12.8291 20.086 12.8805 20.4267 12.8805 20.8V25H11.2845V20.8C11.2845 20.38 11.1911 20.0533 11.0045 19.82C10.8178 19.5867 10.5331 19.47 10.1505 19.47C9.87045 19.47 9.60912 19.54 9.36645 19.68C9.13312 19.8107 8.90912 19.988 8.69445 20.212V25H7.09845V18.392H8.06445C8.27912 18.392 8.41445 18.4807 8.47045 18.658L8.58245 19.232ZM18.4592 19.652C18.3659 19.7733 18.2586 19.834 18.1372 19.834C18.0532 19.834 17.9646 19.8153 17.8712 19.778C17.7872 19.7313 17.6892 19.68 17.5772 19.624C17.4652 19.568 17.3346 19.5213 17.1852 19.484C17.0359 19.4373 16.8586 19.414 16.6532 19.414C16.3266 19.414 16.0746 19.484 15.8972 19.624C15.7199 19.764 15.6312 19.9413 15.6312 20.156C15.6312 20.352 15.7106 20.506 15.8692 20.618C16.0279 20.73 16.2286 20.8327 16.4712 20.926C16.7139 21.01 16.9752 21.094 17.2552 21.178C17.5352 21.262 17.7966 21.374 18.0392 21.514C18.2819 21.654 18.4826 21.836 18.6412 22.06C18.7999 22.284 18.8792 22.5733 18.8792 22.928C18.8792 23.5627 18.6506 24.0853 18.1932 24.496C17.7452 24.8973 17.0919 25.098 16.2332 25.098C15.7852 25.098 15.3559 25.0233 14.9452 24.874C14.5346 24.7153 14.1986 24.5193 13.9372 24.286L14.3012 23.712C14.3479 23.6373 14.3992 23.5813 14.4552 23.544C14.5206 23.5067 14.6046 23.488 14.7072 23.488C14.8099 23.488 14.9032 23.516 14.9872 23.572C15.0806 23.628 15.1832 23.6887 15.2952 23.754C15.4166 23.8193 15.5519 23.88 15.7012 23.936C15.8599 23.992 16.0606 24.02 16.3032 24.02C16.6952 24.02 16.9752 23.936 17.1432 23.768C17.3112 23.6 17.3952 23.4087 17.3952 23.194C17.3952 22.9793 17.3112 22.816 17.1432 22.704C16.9846 22.5827 16.7839 22.48 16.5412 22.396C16.2986 22.312 16.0372 22.228 15.7572 22.144C15.4772 22.06 15.2159 21.948 14.9732 21.808C14.7306 21.6587 14.5252 21.4673 14.3572 21.234C14.1986 20.9913 14.1192 20.674 14.1192 20.282C14.1192 20.0207 14.1706 19.7687 14.2732 19.526C14.3852 19.2833 14.5439 19.0687 14.7492 18.882C14.9639 18.6953 15.2252 18.5507 15.5332 18.448C15.8412 18.336 16.2006 18.28 16.6112 18.28C17.0779 18.28 17.4979 18.3547 17.8712 18.504C18.2446 18.6533 18.5572 18.8493 18.8092 19.092L18.4592 19.652ZM22.2847 25.098C21.7154 25.098 21.2767 24.9393 20.9687 24.622C20.6701 24.3047 20.5207 23.866 20.5207 23.306V19.568H19.8347C19.7414 19.568 19.6621 19.54 19.5967 19.484C19.5407 19.428 19.5127 19.3487 19.5127 19.246V18.63L20.6047 18.476L20.9267 16.614C20.9547 16.4553 21.0714 16.376 21.2767 16.376H22.1027V18.476H23.8527V19.568H22.1027V23.194C22.1027 23.4087 22.1494 23.5767 22.2427 23.698C22.3454 23.81 22.4901 23.866 22.6767 23.866C22.8727 23.866 23.0127 23.8287 23.0967 23.754C23.1901 23.6793 23.2741 23.642 23.3487 23.642C23.4234 23.642 23.4981 23.6887 23.5727 23.782L24.0347 24.51C23.8014 24.6967 23.5307 24.8413 23.2227 24.944C22.9241 25.0467 22.6114 25.098 22.2847 25.098ZM28.3996 22.158C27.9329 22.1767 27.5409 22.2187 27.2236 22.284C26.9156 22.34 26.6636 22.4147 26.4676 22.508C26.2809 22.6013 26.1456 22.7133 26.0616 22.844C25.9776 22.9653 25.9356 23.1007 25.9356 23.25C25.9356 23.53 26.0196 23.7353 26.1876 23.866C26.3556 23.9967 26.5749 24.062 26.8456 24.062C27.1816 24.062 27.4662 23.9967 27.6996 23.866C27.9329 23.7353 28.1662 23.5533 28.3996 23.32V22.158ZM24.7316 19.302C25.4782 18.6113 26.3929 18.266 27.4756 18.266C27.8676 18.266 28.2129 18.3313 28.5116 18.462C28.8196 18.5833 29.0809 18.756 29.2956 18.98C29.5102 19.204 29.6736 19.4747 29.7856 19.792C29.8976 20.1 29.9536 20.4407 29.9536 20.814V25H29.2256C29.0669 25 28.9502 24.9813 28.8756 24.944C28.8009 24.9067 28.7356 24.8133 28.6796 24.664L28.5676 24.16C28.2222 24.4587 27.8862 24.692 27.5596 24.86C27.2422 25.0187 26.8409 25.098 26.3556 25.098C25.7769 25.098 25.3102 24.9533 24.9556 24.664C24.6009 24.3653 24.4236 23.9127 24.4236 23.306C24.4236 23.0633 24.4889 22.8207 24.6196 22.578C24.7502 22.3353 24.9696 22.116 25.2776 21.92C25.5856 21.724 25.9916 21.5653 26.4956 21.444C27.0089 21.3133 27.6436 21.2387 28.3996 21.22V20.814C28.3996 20.3567 28.3016 20.0207 28.1056 19.806C27.9096 19.582 27.6342 19.47 27.2796 19.47C27.0276 19.47 26.8129 19.5027 26.6356 19.568C26.4676 19.624 26.3182 19.694 26.1876 19.778C26.0662 19.8527 25.9496 19.9227 25.8376 19.988C25.7349 20.044 25.6182 20.072 25.4876 20.072C25.3756 20.072 25.2776 20.0487 25.1936 20.002C25.1189 19.946 25.0629 19.8807 25.0256 19.806L24.7316 19.302ZM33.0444 15.466V25H31.4484V15.466H33.0444ZM36.2163 15.466V25H34.6203V15.466H36.2163Z" fill="#1E1E1E"/>
</svg>
