<svg width="40" height="40" viewBox="0 0 40 40" fill="none" xmlns="http://www.w3.org/2000/svg">
<rect width="40" height="40" rx="10" fill="#F4F3FF"/>
<path d="M13.3333 30C12.9778 30 12.6667 29.8636 12.4 29.5909C12.1333 29.3182 12 29 12 28.6364V11.3636C12 11 12.1333 10.6818 12.4 10.4091C12.6667 10.1364 12.9778 10 13.3333 10H20.4444V11.3636H13.3333V12.0455H20.4444V13.4091H13.3333V26.5909H23.1111V23.6364H24.4444V28.6364C24.4444 29 24.3111 29.3182 24.0444 29.5909C23.7778 29.8636 23.4667 30 23.1111 30H13.3333ZM13.3333 27.9545V28.6364H23.1111V27.9545H13.3333ZM23.8667 21.5L19.7333 17.2727L20.6667 16.3182L23.2 18.8864V12.0455H24.5333V18.8864L27.0667 16.3182L28 17.2727L23.8667 21.5Z" fill="#1E1E1E"/>
</svg>
