<svg width="40" height="41" viewBox="0 0 40 41" fill="none" xmlns="http://www.w3.org/2000/svg">
<rect y="0.5" width="40" height="40" rx="10" fill="#F4F3FF"/>
<path d="M20 16.5C19.4696 16.5 18.9609 16.2893 18.5858 15.9142C18.2107 15.5391 18 15.0304 18 14.5C18 13.9696 18.2107 13.4609 18.5858 13.0858C18.9609 12.7107 19.4696 12.5 20 12.5C20.5304 12.5 21.0391 12.7107 21.4142 13.0858C21.7893 13.4609 22 13.9696 22 14.5C22 15.0304 21.7893 15.5391 21.4142 15.9142C21.0391 16.2893 20.5304 16.5 20 16.5ZM20 22.5C19.4696 22.5 18.9609 22.2893 18.5858 21.9142C18.2107 21.5391 18 21.0304 18 20.5C18 19.9696 18.2107 19.4609 18.5858 19.0858C18.9609 18.7107 19.4696 18.5 20 18.5C20.5304 18.5 21.0391 18.7107 21.4142 19.0858C21.7893 19.4609 22 19.9696 22 20.5C22 21.0304 21.7893 21.5391 21.4142 21.9142C21.0391 22.2893 20.5304 22.5 20 22.5ZM18 26.5C18 27.0304 18.2107 27.5391 18.5858 27.9142C18.9609 28.2893 19.4696 28.5 20 28.5C20.5304 28.5 21.0391 28.2893 21.4142 27.9142C21.7893 27.5391 22 27.0304 22 26.5C22 25.9696 21.7893 25.4609 21.4142 25.0858C21.0391 24.7107 20.5304 24.5 20 24.5C19.4696 24.5 18.9609 24.7107 18.5858 25.0858C18.2107 25.4609 18 25.9696 18 26.5Z" fill="#1E1E1E"/>
</svg>
