<svg width="40" height="41" viewBox="0 0 40 41" fill="none" xmlns="http://www.w3.org/2000/svg">
<rect y="0.5" width="40" height="40" rx="10" fill="#F4F3FF"/>
<path d="M26.998 19.5002C27.2429 19.5002 27.4793 19.5902 27.6623 19.7529C27.8454 19.9157 27.9623 20.14 27.991 20.3832L27.998 20.5002V26.5002C27.998 27.5265 27.6035 28.5134 26.8962 29.257C26.1889 30.0006 25.2229 30.4439 24.198 30.4952L23.998 30.5002H16.002C14.9757 30.5002 13.9887 30.1058 13.2451 29.3985C12.5016 28.6912 12.0583 27.7252 12.007 26.7002L12.002 26.5002V20.5002C12.0022 20.2453 12.0998 20.0002 12.2748 19.8148C12.4498 19.6295 12.6889 19.518 12.9433 19.503C13.1978 19.4881 13.4483 19.5709 13.6438 19.7345C13.8392 19.8981 13.9648 20.1301 13.995 20.3832L14.002 20.5002V26.5002C14.002 27.0046 14.1927 27.4904 14.5358 27.8601C14.8789 28.2299 15.349 28.4564 15.852 28.4942L16.002 28.5002H23.998C24.5024 28.5001 24.9881 28.3094 25.3579 27.9664C25.7276 27.6233 25.9541 27.1532 25.992 26.6502L25.998 26.5002V20.5002C25.998 20.235 26.1033 19.9806 26.2908 19.7931C26.4784 19.6056 26.7327 19.5002 26.998 19.5002ZM14.291 15.7902L19.288 10.7932C19.46 10.6209 19.6891 10.5173 19.9321 10.5018C20.1751 10.4863 20.4154 10.5601 20.608 10.7092L20.702 10.7922L25.705 15.7892C25.8846 15.969 25.9891 16.2105 25.9971 16.4645C26.0052 16.7186 25.9161 16.9662 25.7482 17.157C25.5802 17.3477 25.3459 17.4674 25.0928 17.4916C24.8398 17.5158 24.587 17.4427 24.386 17.2872L24.292 17.2042L20.998 13.9152V23.7552C20.9979 24.0001 20.908 24.2365 20.7452 24.4196C20.5825 24.6026 20.3582 24.7196 20.115 24.7482L19.998 24.7552C19.753 24.7552 19.5166 24.6653 19.3336 24.5025C19.1505 24.3397 19.0336 24.1155 19.005 23.8722L18.998 23.7552V13.9102L15.705 17.2042C15.5328 17.3764 15.3037 17.4798 15.0606 17.4951C14.8176 17.5104 14.5774 17.4365 14.385 17.2872L14.291 17.2042C14.1188 17.032 14.0153 16.8029 14.0001 16.5599C13.9848 16.3169 14.0587 16.0766 14.208 15.8842L14.291 15.7902L19.288 10.7932L14.292 15.7892L14.291 15.7902Z" fill="#1E1E1E"/>
</svg>
